<?xml version="1.0" encoding="UTF-8"?>
<svg version="1.1" xmlns="http://www.w3.org/2000/svg" width="960" height="960">
<path d="M0 0 C2.51935735 -0.0037401 5.03871355 -0.00834306 7.55806792 -0.01373065 C13.01995304 -0.02338902 18.48178751 -0.02688164 23.94367981 -0.02481842 C32.06646212 -0.02175763 40.18920549 -0.03011628 48.31198021 -0.04056767 C63.66793633 -0.05987472 79.02387907 -0.06553469 94.3798459 -0.06668179 C106.24429762 -0.06760225 118.10874411 -0.07172611 129.97319412 -0.07808304 C133.39325225 -0.07987825 136.81331038 -0.08165787 140.23336852 -0.08343279 C141.50887895 -0.08409594 141.50887895 -0.08409594 142.81015728 -0.08477248 C166.71846116 -0.09707536 190.62676323 -0.10497419 214.53507042 -0.10408592 C215.43585143 -0.10405476 216.33663244 -0.10402361 217.26470985 -0.10399151 C221.82981534 -0.1038253 226.39492082 -0.10362722 230.96002631 -0.10342209 C231.86660389 -0.1033822 232.77318147 -0.10334231 233.7072311 -0.10330121 C235.54055212 -0.10322034 237.37387314 -0.10313674 239.20719415 -0.10305043 C267.71412845 -0.10182563 296.22101512 -0.11682727 324.72793579 -0.14419556 C356.78767617 -0.17496238 388.84738526 -0.19212524 420.90714133 -0.19026911 C424.33034301 -0.19011986 427.75354469 -0.19002244 431.17674637 -0.18996048 C432.01956531 -0.18993717 432.86238424 -0.18991386 433.73074315 -0.18988985 C447.25432389 -0.18982847 460.77786306 -0.20256356 474.30143147 -0.21982501 C487.91067717 -0.23683564 501.51986252 -0.23871308 515.129113 -0.22560637 C523.19817278 -0.21825288 531.26704836 -0.22176636 539.33608836 -0.24149105 C545.38479695 -0.25501849 551.43329242 -0.24728269 557.48200388 -0.2317446 C559.91133807 -0.22869266 562.34069261 -0.23223797 564.77000277 -0.24346475 C607.8014365 -0.42898311 649.89575788 11.79517564 684.24404907 38.26742554 C685.12190063 38.93387085 685.9997522 39.60031616 686.90420532 40.28695679 C709.29202784 57.70759206 727.26672978 79.01645157 740.24404907 104.26742554 C740.58242798 104.91437378 740.92080688 105.56132202 741.2694397 106.22787476 C753.56417295 129.97692689 761.41986505 156.93799359 761.37827015 183.77383423 C761.38062238 184.81253611 761.38297461 185.85123799 761.38539812 186.92141569 C761.39206252 190.40688005 761.39163067 193.89230691 761.39122009 197.3777771 C761.39452033 199.90020492 761.39824623 202.4226322 761.40236157 204.94505882 C761.41132216 211.15389156 761.41560638 217.36271316 761.41788054 223.57155148 C761.42084773 231.01038252 761.4295483 238.44920415 761.43829482 245.88803025 C761.45912169 263.86947698 761.46960721 281.85092535 761.47842443 299.83238133 C761.48263442 308.34507533 761.48785601 316.85776863 761.49310895 325.37046205 C761.51099979 354.52962688 761.52599328 383.68879192 761.53342915 412.84796143 C761.5339039 414.67805723 761.53437979 416.50815304 761.53485681 418.33824885 C761.53521137 419.69955213 761.53521137 419.69955213 761.5355731 421.08835649 C761.53677426 425.68613211 761.53798972 430.28390773 761.53921509 434.88168335 C761.53945524 435.79411546 761.53969539 436.70654756 761.53994281 437.64662912 C761.54782931 467.20554026 761.57124741 496.76441118 761.60377103 526.32330477 C761.63811986 557.59834792 761.65778507 588.87336756 761.66107339 620.14842987 C761.6614909 623.58632915 761.66197046 627.02422842 761.66249657 630.46212769 C761.66261976 631.30859193 761.66274295 632.15505617 761.66286987 633.02717084 C761.66519586 646.61245355 761.68082237 660.19768936 761.70133841 673.78295539 C761.72166103 687.45790144 761.72704346 701.13279152 761.71756778 714.80774987 C761.71237739 722.91677451 761.71811272 731.02561198 761.74010245 739.13460943 C761.75533051 745.21331181 761.74928233 751.29180773 761.73543193 757.37052107 C761.73306778 759.81214955 761.73731656 762.25379649 761.74926058 764.6953969 C761.84322632 785.19155733 759.86555393 805.20721162 753.43154907 824.76742554 C753.08390503 825.85289673 752.73626099 826.93836792 752.37808228 828.05673218 C740.54862029 864.23510271 717.50475246 897.0713308 687.24404907 920.26742554 C686.66896606 920.7131189 686.09388306 921.15881226 685.50137329 921.61801147 C660.68913728 940.65008722 631.88506571 952.62086017 601.24404907 958.26742554 C600.34640693 958.44117632 599.44876479 958.61492709 598.52392137 958.79394305 C586.56083459 960.81897539 574.58551541 960.55190014 562.48809814 960.53485107 C559.96874079 960.53859118 557.4493846 960.54319413 554.93003023 960.54858172 C549.4681451 960.55824009 544.00631063 960.56173271 538.54441833 960.55966949 C530.42163603 960.5566087 522.29889265 960.56496736 514.17611794 960.57541875 C498.82016181 960.59472579 483.46421908 960.60038577 468.10825224 960.60153286 C456.24380053 960.60245333 444.37935404 960.60657719 432.51490402 960.61293411 C429.0948459 960.61472932 425.67478776 960.61650895 422.25472963 960.61828387 C421.40438934 960.61872596 420.55404905 960.61916806 419.67794087 960.61962355 C395.76963698 960.63192643 371.86133491 960.63982526 347.95302773 960.638937 C347.05224671 960.63890584 346.1514657 960.63887468 345.22338829 960.63884258 C340.65828281 960.63867638 336.09317732 960.63847829 331.52807184 960.63827316 C330.62149425 960.63823327 329.71491667 960.63819338 328.78086704 960.63815228 C326.94754603 960.63807141 325.11422501 960.63798781 323.28090399 960.6379015 C294.7739697 960.6366767 266.26708303 960.65167834 237.76016235 960.67904663 C205.70042197 960.70981346 173.64071288 960.72697631 141.58095682 960.72512019 C138.15775514 960.72497094 134.73455346 960.72487352 131.31135178 960.72481155 C130.46853284 960.72478825 129.6257139 960.72476494 128.757355 960.72474092 C115.23377426 960.72467955 101.71023508 960.73741463 88.18666667 960.75467608 C74.57742097 960.77168671 60.96823563 960.77356415 47.35898514 960.76045744 C39.28992536 960.75310396 31.22104978 960.75661743 23.15200978 960.77634212 C17.10330119 960.78986956 11.05480572 960.78213376 5.00609426 960.76659568 C2.57676008 960.76354373 0.14740554 960.76708904 -2.28190462 960.77831583 C-22.28205425 960.86454105 -41.9397465 958.94065864 -61.13095093 953.01742554 C-62.6083374 952.57245728 -62.6083374 952.57245728 -64.11557007 952.11849976 C-73.36082689 949.24186452 -82.09285932 945.57008773 -90.75595093 941.26742554 C-91.47863159 940.91422241 -92.20131226 940.56101929 -92.94589233 940.19711304 C-103.26904031 935.11213383 -112.61974773 929.2532646 -121.75595093 922.26742554 C-123.07659546 921.26582397 -123.07659546 921.26582397 -124.42391968 920.24398804 C-146.80332749 902.81010914 -164.77672518 881.52210904 -177.75595093 856.26742554 C-178.09432983 855.62047729 -178.43270874 854.97352905 -178.78134155 854.30697632 C-188.52137543 835.49269482 -194.73778774 815.21335306 -197.75595093 794.26742554 C-197.92547891 793.11284001 -198.0950069 791.95825449 -198.2696721 790.76868153 C-198.88655636 785.77337091 -198.89799081 780.81980942 -198.890172 775.79225159 C-198.89252423 774.75692645 -198.89487647 773.72160132 -198.89729998 772.6549027 C-198.90396414 769.18092511 -198.90353253 765.70698514 -198.90312195 762.23300171 C-198.9064222 759.71882349 -198.9101481 757.2046458 -198.91426343 754.69046879 C-198.92322388 748.50204102 -198.92750821 742.31362441 -198.92978239 736.12519104 C-198.93274963 728.71078228 -198.94145023 721.29638297 -198.95019667 713.88197918 C-198.97102338 695.95956898 -198.98150904 678.03715716 -198.99032628 660.11473768 C-198.9945363 651.62994813 -198.99975789 643.14515928 -199.00501081 634.66037031 C-199.02290164 605.59664601 -199.03789511 576.53292149 -199.045331 547.4691925 C-199.04580575 545.64509187 -199.04628164 543.82099124 -199.04675866 541.9968906 C-199.04699504 541.09232827 -199.04723142 540.18776594 -199.04747495 539.25579263 C-199.04867611 534.67308172 -199.04989157 530.09037081 -199.05111694 525.50765991 C-199.05135709 524.59821749 -199.05159724 523.68877507 -199.05184467 522.75177379 C-199.05973113 493.28986621 -199.08314914 463.82799897 -199.11567289 434.366109 C-199.15002204 403.19352298 -199.16968695 372.02096054 -199.17297524 340.84835529 C-199.17339275 337.42168998 -199.17387231 333.99502468 -199.17439842 330.56835938 C-199.17452161 329.72466144 -199.17464481 328.8809635 -199.17477173 328.01169895 C-199.17709768 314.47104816 -199.19272397 300.93044443 -199.21324027 287.38981037 C-199.23356331 273.75967258 -199.23894512 260.12959093 -199.22946963 246.49944079 C-199.22427941 238.41707733 -199.2300138 230.33490167 -199.25200431 222.25256548 C-199.26723319 216.19370975 -199.26118364 210.13506114 -199.24733379 204.07619441 C-199.24496977 201.64264123 -199.24921771 199.20906954 -199.26116244 196.77554452 C-199.45916719 153.73113973 -187.23641462 111.62637429 -160.75595093 77.26742554 C-160.08950562 76.38957397 -159.4230603 75.51172241 -158.73641968 74.60726929 C-140.74070923 51.48039903 -118.82391119 33.61738095 -92.75595093 20.26742554 C-92.12656616 19.94048706 -91.4971814 19.61354858 -90.84872437 19.27670288 C-74.55276617 10.90129764 -56.75832735 5.49097825 -38.75595093 2.26742554 C-37.88537406 2.09959135 -37.0147972 1.93175717 -36.11783922 1.7588371 C-24.12468702 -0.27691945 -12.12874978 -0.01709322 0 0 Z " fill="#1C99F7" transform="translate(198.75595092773438,-0.267425537109375)"/>
<path d="M0 0 C0.845625 0.66 1.69125 1.32 2.5625 2 C3.52285156 2.74765625 4.48320312 3.4953125 5.47265625 4.265625 C14.25987228 11.64446981 19.58648558 24.42765985 25.125 34.25 C25.75728516 35.36987305 26.38957031 36.48974609 27.04101562 37.64355469 C27.62689453 38.69446289 28.21277344 39.74537109 28.81640625 40.828125 C29.34564697 41.7759082 29.8748877 42.72369141 30.42016602 43.70019531 C31.5625 46 31.5625 46 31.5625 48 C32.2225 48 32.8825 48 33.5625 48 C33.8303833 47.12311523 34.0982666 46.24623047 34.37426758 45.34277344 C35.51492244 42.13384671 36.8605643 39.45094336 38.57421875 36.515625 C39.16783203 35.49726563 39.76144531 34.47890625 40.37304688 33.4296875 C41.30213867 31.85574219 41.30213867 31.85574219 42.25 30.25 C42.85005859 29.21617187 43.45011719 28.18234375 44.06835938 27.1171875 C53.28219554 11.40121347 61.75675914 -0.5844872 79.5234375 -6.671875 C93.49279229 -8.91981715 106.00443501 -5.93776669 117.56640625 2.3359375 C127.27941517 10.43327957 131.59262846 19.67751889 133.5625 32 C135.32203001 52.81659348 121.56211961 70.65742903 111.45214844 87.78515625 C108.31066814 93.12973151 105.21813694 98.5023477 102.125 103.875 C100.86588746 106.05989701 99.60677287 108.24479284 98.34765625 110.4296875 C97.72262207 111.51475586 97.09758789 112.59982422 96.45361328 113.71777344 C93.32569852 119.14659942 90.19391552 124.57319281 87.0625 130 C85.81248121 132.16665583 84.56248122 134.3333225 83.3125 136.5 C70.8125 158.16666667 58.3125 179.83333333 45.8125 201.5 C45.19366943 202.57266113 44.57483887 203.64532227 43.93725586 204.75048828 C42.68814482 206.91557071 41.43895871 209.08060982 40.18969727 211.24560547 C37.05047691 216.68615706 33.91259437 222.12747216 30.77734375 227.5703125 C24.16027108 239.0544882 17.51616023 250.52196894 10.82958984 261.96582031 C4.66330946 272.52620282 -1.4424595 283.12126766 -7.54638672 293.71777344 C-10.67430148 299.14659942 -13.80608448 304.57319281 -16.9375 310 C-18.18751879 312.16665583 -19.43751878 314.3333225 -20.6875 316.5 C-28.18750001 329.50000001 -28.18750001 329.50000001 -30.06518555 332.75463867 C-31.30625254 334.90583224 -32.54730093 337.05703655 -33.78833008 339.20825195 C-36.70248344 344.25962999 -39.61681818 349.3109031 -42.53182983 354.36178589 C-43.56423478 356.15066918 -44.59657956 357.93958717 -45.62890625 359.72851562 C-46.92435948 361.97337636 -48.2199257 364.2181719 -49.515625 366.46289062 C-50.10214844 367.47931641 -50.68867188 368.49574219 -51.29296875 369.54296875 C-51.80496826 370.43008545 -52.31696777 371.31720215 -52.84448242 372.23120117 C-54.07880484 374.37655758 -55.30940568 376.52388219 -56.5370636 378.67304993 C-57.16420761 379.77094345 -57.79135162 380.86883698 -58.4375 382 C-57.36407789 382.00358253 -57.36407789 382.00358253 -56.26897049 382.00723743 C-38.81484632 382.0665068 -21.36086864 382.14213271 -3.90689468 382.23571491 C4.53389991 382.28058169 12.97465318 382.32001711 21.41552734 382.34643555 C28.77702753 382.36948977 36.1383959 382.40296993 43.49979138 382.44870156 C47.39358519 382.47253423 51.28724925 382.49132792 55.1811142 382.49761391 C58.85509584 382.50371024 62.52874597 382.52387147 66.20260429 382.55427551 C68.17550154 382.56709832 70.14847652 382.56549832 72.12141418 382.5632782 C88.88078446 382.73796678 102.89213056 387.57302981 115.08984375 399.296875 C125.88752756 411.100978 131.95436143 426.08244555 132 442 C132.00314209 442.90975586 132.00628418 443.81951172 132.00952148 444.75683594 C131.88336862 452.00143349 131.06706806 464.49543194 125.5625 470 C123.41586373 470.10255532 121.26578288 470.13294054 119.11670208 470.13701439 C118.4319753 470.13966622 117.74724853 470.14231804 117.04177245 470.14505023 C114.71840185 470.15278638 112.39508371 470.15330404 110.07170105 470.15390015 C108.40059551 470.15791199 106.72949095 470.16234974 105.05838758 470.1671797 C100.44337446 470.17918306 95.82837181 470.18480238 91.21334612 470.18936086 C86.24443726 470.19530309 81.27554101 470.20691668 76.30664062 470.21765137 C64.2920651 470.24221225 52.27748538 470.25681057 40.26289245 470.26971143 C36.87006976 470.27342153 33.47724749 470.27739494 30.08442521 470.2814641 C9.02411541 470.30670543 -12.03619501 470.32876291 -33.09651661 470.34119225 C-37.97865107 470.34412206 -42.86078551 470.3470837 -47.74291992 470.35009766 C-48.95638691 470.35084371 -50.16985389 470.35158976 -51.42009261 470.35235842 C-71.06697374 470.3650054 -90.71376423 470.39821675 -110.36060301 470.43989949 C-130.5246345 470.48232907 -150.68861963 470.50588873 -170.85269564 470.51111281 C-182.17671355 470.51452642 -193.50058999 470.52627531 -204.82456398 470.55921555 C-214.47178752 470.58723165 -224.11884063 470.59820865 -233.7661017 470.58702008 C-238.687104 470.58183688 -243.6077495 470.5846982 -248.52869987 470.60948563 C-253.03896902 470.63201416 -257.54862579 470.63121029 -262.05890592 470.61228175 C-263.68560133 470.60948673 -265.31233859 470.61505251 -266.93896685 470.63009469 C-281.55539741 470.75693137 -292.8112302 467.23929694 -303.52734375 457.00390625 C-313.26738339 446.82855757 -315.96698153 435.7892994 -315.71484375 422.08203125 C-315.17964034 410.57116394 -308.85073364 401.0297854 -300.75 393.25 C-293.62991933 387.08859888 -285.05867483 382.69817675 -275.50848389 383.03019714 C-274.5164093 383.0608728 -273.52433472 383.09154846 -272.50219727 383.12315369 C-271.41962646 383.16138748 -270.33705566 383.19962128 -269.22167969 383.23901367 C-266.8474394 383.31172773 -264.47314815 383.3827912 -262.09881592 383.45243835 C-260.83864403 383.48955114 -259.57847214 383.52666393 -258.28011322 383.56490135 C-250.18815172 383.77762084 -242.09378695 383.87454213 -233.99979782 383.977458 C-226.89393575 384.0721532 -219.79602385 384.21931954 -212.69433594 384.48461914 C-183.07662271 387.41988457 -183.07662271 387.41988457 -156.37210083 379.35461426 C-150.25487353 373.39868667 -147.71022035 365.76116534 -145.56813049 357.64764404 C-143.65567866 351.47768525 -140.26998293 346.34135629 -136.875 340.875 C-135.62738379 338.73046413 -134.38567156 336.5824724 -133.15234375 334.4296875 C-132.53987793 333.36975586 -131.92741211 332.30982422 -131.29638672 331.21777344 C-128.17425395 325.81329355 -125.05608796 320.40652588 -121.9375 315 C-120.68751878 312.8333225 -119.43751879 310.66665583 -118.1875 308.5 C-117.259375 306.89125 -117.259375 306.89125 -116.3125 305.25 C-50.6875 191.5 -50.6875 191.5 -48.81005859 188.24584961 C-47.56810256 186.09307184 -46.3262396 183.94024037 -45.08447266 181.78735352 C-42.18103087 176.75383085 -39.276715 171.72081952 -36.36895752 166.68978882 C-35.34404597 164.91637392 -34.31943877 163.14278354 -33.29492188 161.36914062 C-32.01297262 159.15004227 -30.73045893 156.93126984 -29.44726562 154.71289062 C-28.29939139 152.72535591 -27.15620859 150.73510161 -26.01855469 148.74169922 C-24.99043641 146.95884432 -23.94001 145.18860647 -22.86425781 143.43408203 C-22.16187988 142.26208252 -22.16187988 142.26208252 -21.4453125 141.06640625 C-21.03168457 140.39681885 -20.61805664 139.72723145 -20.19189453 139.03735352 C-19.17246648 136.28423795 -19.57463554 134.78512435 -20.4375 132 C-21.56852846 129.62131817 -21.56852846 129.62131817 -23.03515625 127.24609375 C-23.58123535 126.32352783 -24.12731445 125.40096191 -24.68994141 124.45043945 C-25.28726074 123.45616943 -25.88458008 122.46189941 -26.5 121.4375 C-27.78119407 119.27417503 -29.0610898 117.11008074 -30.33984375 114.9453125 C-31.01128418 113.81125977 -31.68272461 112.67720703 -32.37451172 111.50878906 C-35.83233206 105.64569751 -39.19443794 99.72743764 -42.5625 93.8125 C-43.90354493 91.45827584 -45.2447166 89.10412392 -46.5859375 86.75 C-47.55418457 85.05037109 -47.55418457 85.05037109 -48.54199219 83.31640625 C-50.34396638 80.16364769 -52.1575524 77.01795365 -53.9765625 73.875 C-54.5216748 72.93035889 -55.06678711 71.98571777 -55.62841797 71.01245117 C-56.62650712 69.28400332 -57.62783404 67.55741858 -58.63330078 65.83325195 C-66.1114571 52.85390764 -70.71140718 41.00277589 -67.8203125 25.7421875 C-63.99483411 12.77618553 -55.27586532 2.83163971 -43.5078125 -3.6015625 C-28.58107972 -10.26461778 -13.88685041 -8.07962206 0 0 Z " fill="#FEFEFE" transform="translate(443.4375,172)"/>
<path d="M0 0 C3.8339058 1.2779686 4.10636815 2.47450668 6.00390625 5.96875 C6.57423584 7.00572021 7.14456543 8.04269043 7.73217773 9.11108398 C8.33618408 10.22942627 8.94019043 11.34776855 9.5625 12.5 C10.83454357 14.81456871 12.10798382 17.12837037 13.3828125 19.44140625 C14.00446289 20.57336426 14.62611328 21.70532227 15.26660156 22.87158203 C17.42504161 26.7671103 19.65862896 30.61154113 21.9375 34.4375 C26.09914843 41.4464551 30.18330035 48.4980352 34.25 55.5625 C39.14145324 64.05656299 44.05387301 72.5376557 49 81 C55.74719493 92.54718726 62.43339398 104.12902168 69.10888672 115.71777344 C72.23680148 121.14659942 75.36858448 126.57319281 78.5 132 C79.75001879 134.16665583 81.00001878 136.3333225 82.25 138.5 C82.86875 139.5725 83.4875 140.645 84.125 141.75 C89.75 151.5 89.75 151.5 91.62524414 154.75048828 C92.87435518 156.91557071 94.12354129 159.08060982 95.37280273 161.24560547 C98.51202309 166.68615706 101.64990563 172.12747216 104.78515625 177.5703125 C105.41808594 178.66859375 106.05101562 179.766875 106.703125 180.8984375 C107.86900321 182.9215791 109.03443721 184.94497682 110.19921875 186.96875 C111.33910536 188.94632072 112.50645474 190.90826477 113.69792175 192.85519409 C115.59220828 196.088549 117.04479965 199.40901347 118.50117493 202.8598938 C123.52434958 214.42509092 123.52434958 214.42509092 132.8003788 222.35396194 C140.88851891 224.40905714 149.15222957 223.80097042 157.4140625 223.421875 C160.07875127 223.38931918 162.74166316 223.3666882 165.40634155 223.35748291 C171.68217098 223.31547154 177.94874263 223.15522791 184.22105825 222.94767213 C193.40190582 222.64915612 202.58546495 222.52949017 211.77011681 222.4106636 C213.13510589 222.39275017 214.50009423 222.37477957 215.86508179 222.35675049 C216.53242541 222.34815419 217.19976903 222.3395579 217.88733518 222.33070111 C222.44370863 222.26737997 226.99653263 222.14836101 231.55117798 222.00994873 C232.76814865 221.98041611 233.98511932 221.95088348 235.2389679 221.92045593 C237.48767415 221.86573711 239.7360903 221.79553806 241.98365784 221.70545959 C253.35170871 221.47268003 263.11786784 224.92178249 272 232 C272.61488281 232.48984375 273.22976563 232.9796875 273.86328125 233.484375 C280.54973132 239.47401098 286.31601476 248.93590435 287.19287109 257.99194336 C287.7335186 272.07007663 286.46274185 283.8381823 276.9296875 295.0078125 C268.13768576 304.08457543 257.71241891 309.32704252 244.91479492 309.56762695 C241.93537454 309.58510969 238.95936464 309.54031871 235.98046875 309.48828125 C234.38480246 309.4789299 232.78912159 309.4718248 231.19343567 309.46684265 C227.03883661 309.44795487 222.88514282 309.39901778 218.730896 309.34332275 C214.47371662 309.29173111 210.21638775 309.26924435 205.95898438 309.24414062 C197.63891227 309.1908759 189.31956944 309.105792 181 309 C183.18712873 312.91890503 185.37658228 316.83650674 187.56640625 320.75390625 C188.48081482 322.39244568 188.48081482 322.39244568 189.41369629 324.06408691 C193.51555245 331.39861252 197.69175573 338.68537988 201.9375 345.9375 C202.83816193 347.47658775 202.83816193 347.47658775 203.75701904 349.04676819 C204.89067929 350.9831367 206.02458655 352.91936061 207.15869141 354.85546875 C210.48983395 360.54429345 213.81307842 366.23747251 217.125 371.9375 C217.75269287 373.0092749 218.38038574 374.0810498 219.02709961 375.18530273 C227.40297304 389.6278401 231.73208902 401.27778747 227.5 418.1875 C224.12280986 428.75751266 217.54892635 437.28849265 208 443 C196.0883608 448.70332849 184.51888561 451.37426182 171.625 447.375 C158.28299394 442.2710111 150.33419835 433.40933636 143.5 421.1875 C142.90179443 420.13997559 142.30358887 419.09245117 141.68725586 418.01318359 C140.4224595 415.79785867 139.16204003 413.58002975 137.90576172 411.35986328 C135.43763843 407.00855497 132.93333505 402.67867876 130.42773438 398.34887695 C128.54312144 395.09150603 126.66341979 391.83134824 124.78515625 388.5703125 C121.02644619 382.04513757 117.2635825 375.5223655 113.5 369 C112.24998121 366.83334417 110.99998122 364.6666775 109.75 362.5 C109.13125 361.4275 108.5125 360.355 107.875 359.25 C87.25 323.5 87.25 323.5 85.37475586 320.24951172 C84.12564482 318.08442929 82.87645871 315.91939018 81.62719727 313.75439453 C78.48797691 308.31384294 75.35009437 302.87252784 72.21484375 297.4296875 C66.19252671 286.97793801 60.15330663 276.53700452 54.0625 266.125 C48.64078822 256.85500223 43.29795085 247.54168248 37.98077393 238.21154785 C32.77954871 229.0871716 27.51972122 219.99867226 22.21655273 210.93310547 C16.70938948 201.51564578 11.25663565 192.06728391 5.8125 182.61328125 C3.21653686 178.10587934 0.61152507 173.60387149 -2 169.10546875 C-23.1382891 132.67117046 -40.75198309 95.81090459 -29.32421875 52.41796875 C-23.46436843 32.28909012 -15.21661031 14.87389386 0 0 Z " fill="#FEFEFE" transform="translate(539,333)"/>
<path d="M0 0 C4.2901471 3.36780778 8.16536778 7.12482031 12 11 C13.43472656 12.24716797 13.43472656 12.24716797 14.8984375 13.51953125 C17 16 17 16 17.0703125 18.36328125 C15.65646739 21.84629383 13.83631574 24.99425805 11.875 28.1875 C10.95830195 29.71274102 10.0430296 31.23883949 9.12890625 32.765625 C8.62762207 33.60029297 8.12633789 34.43496094 7.60986328 35.29492188 C4.62429443 40.31161932 1.72372258 45.37742795 -1.1875 50.4375 C-1.81865723 51.53078613 -2.44981445 52.62407227 -3.10009766 53.75048828 C-6.09590688 58.94176865 -9.08286562 64.13740107 -12.03962708 69.35099792 C-13.04283796 71.11881516 -14.04892677 72.884963 -15.0559082 74.65063477 C-16.31411842 76.85878343 -17.56692698 79.07002245 -18.81323242 81.28491211 C-26.91181829 95.46450174 -35.50441079 105.84931647 -51.36328125 111.1171875 C-62.92455396 113.92368335 -74.36886857 112.28765172 -84.68359375 106.4921875 C-95.75396228 99.24674082 -101.506242 90.59325341 -105.609375 78.15234375 C-106.22856244 74.74062094 -106.26686407 71.33116098 -106.3125 67.875 C-106.34150391 67.16601562 -106.37050781 66.45703125 -106.40039062 65.7265625 C-106.51259309 56.12893626 -101.71393552 48.03621146 -97.125 39.875 C-96.65666748 39.03316162 -96.18833496 38.19132324 -95.70581055 37.32397461 C-90.66376087 28.31004805 -85.48528734 19.37426427 -80.21484375 10.4921875 C-78.30365112 7.26549864 -76.46429832 4.03254532 -74.75390625 0.6953125 C-70.46711089 -7.30789381 -70.46711089 -7.30789381 -66.02734375 -9.40234375 C-62.9904499 -10.20308004 -60.11922781 -10.67301888 -57 -11 C-56.24589844 -11.17402344 -55.49179688 -11.34804688 -54.71484375 -11.52734375 C-35.91173789 -14.80097801 -15.67141385 -10.95639289 0 0 Z " fill="#FEFEFE" transform="translate(290,670)"/>
</svg>
