<?xml version="1.0" encoding="UTF-8"?>
<svg version="1.1" xmlns="http://www.w3.org/2000/svg" width="980" height="980">
<path d="M0 0 C2.47324369 -0.00390392 4.94648512 -0.00955302 7.41972136 -0.0167709 C12.74674763 -0.02835462 18.07355607 -0.02782547 23.4005661 -0.01599121 C31.32240954 0.00155853 39.24412406 -0.00416909 47.16597462 -0.01415812 C61.32178525 -0.03126283 75.47751791 -0.02586539 89.63332683 -0.01080093 C102.01943074 0.00229404 114.40550771 0.00743851 126.79161835 0.00488091 C127.61588761 0.00472049 128.44015688 0.00456007 129.289404 0.0043948 C132.63603957 0.00373113 135.98267513 0.0030287 139.32931068 0.00226946 C170.66530241 -0.0047405 202.00124676 0.01069029 233.33722643 0.03689292 C261.13431735 0.06001328 288.93135622 0.06539145 316.72845459 0.05516052 C323.85048546 0.05255818 330.97251633 0.04997307 338.09454727 0.0475626 C338.97155039 0.04726515 339.84855351 0.0469677 340.75213248 0.04666124 C364.03200667 0.03903566 387.31187665 0.04546791 410.59174895 0.05625862 C413.09846505 0.05740634 415.60518115 0.05854951 418.11189725 0.05968544 C419.77453293 0.06044069 421.43716861 0.06120633 423.09980428 0.06198245 C435.47627222 0.06762469 447.85272666 0.06632181 460.22919464 0.06175423 C474.30828146 0.05663189 488.38731799 0.06256386 502.46639231 0.08264852 C510.33169904 0.09358227 518.19690682 0.09647722 526.06221645 0.08735999 C531.95345304 0.0814786 537.8445967 0.09146526 543.73581693 0.10735964 C546.10487268 0.11137561 548.4739436 0.11045279 550.84299353 0.10384078 C568.81546069 0.05800702 586.82624783 0.89089905 604.12005615 6.25120544 C605.40855469 6.6374408 605.40855469 6.6374408 606.7230835 7.03147888 C656.09765362 22.18307841 695.68819857 55.05491721 720.05755615 100.56370544 C730.98081956 121.59890983 737.65354775 144.05664376 739.5494957 167.70027161 C739.63319746 168.7341502 739.71689923 169.7680288 739.80313741 170.83323705 C740.65523272 182.20335535 740.7112314 193.54502877 740.68652344 204.94114685 C740.68883454 207.30414233 740.69201538 209.6671371 740.69597793 212.03013039 C740.70424537 218.45129143 740.70023772 224.87239223 740.69400549 231.29355335 C740.68892732 237.53018598 740.69529221 243.76681315 740.70030022 250.00344414 C740.7107788 263.52909871 740.70994015 277.05473429 740.7041424 290.58039063 C740.69909387 302.41754333 740.69780596 314.2546891 740.70018768 326.09184265 C740.70041684 327.27362907 740.70041684 327.27362907 740.70065062 328.47928996 C740.70127339 331.6781625 740.7019102 334.87703504 740.70257015 338.07590757 C740.70867615 368.03032166 740.70316031 397.98472371 740.69237636 427.93913594 C740.68288649 454.50084785 740.6837358 481.06254058 740.69329834 507.62425232 C740.70402792 537.52694429 740.70824297 567.42962563 740.70207381 597.33231926 C740.70143246 600.52506892 740.70080678 603.71781858 740.70018768 606.91056824 C740.70002953 607.69659615 740.69987137 608.48262406 740.69970843 609.29247101 C740.69744185 621.1167111 740.70007834 632.94094347 740.70514679 644.7651825 C740.71088645 658.2216664 740.70939084 671.67812848 740.6985853 685.1346097 C740.69325973 691.99126559 740.69122869 698.84788041 740.69788361 705.70453644 C740.70389759 711.9962996 740.70047927 718.28798851 740.6899285 724.57974505 C740.68771735 726.84054261 740.68877844 729.10134661 740.69368008 731.36213994 C740.71638427 742.7161642 740.46603168 753.98114814 739.5494957 765.30213928 C739.43483185 766.73206744 739.43483185 766.73206744 739.31785156 768.19088304 C736.61646977 798.37260104 725.45064816 829.05540699 707.43255615 853.50120544 C707.04599854 854.02762634 706.65944092 854.55404724 706.26116943 855.09642029 C700.72171336 862.59589017 694.84903496 869.72945181 688.43255615 876.50120544 C687.18732178 877.82571716 687.18732178 877.82571716 685.91693115 879.17698669 C659.6797196 906.29644366 624.46274718 923.96861387 587.43255615 930.50120544 C586.00131694 930.75465617 586.00131694 930.75465617 584.5411638 931.01322711 C572.41142 932.89409108 560.34519084 932.78633924 548.09457397 932.76863098 C545.63281343 932.77237195 543.17105408 932.77697524 540.70929658 932.78236163 C535.37632725 932.79201289 530.04340773 932.79551409 524.71043396 932.7934494 C516.77931031 932.79038642 508.84822648 932.79875205 500.9171106 932.80919865 C485.92293966 932.82849783 470.92878245 932.83416538 455.93460055 932.83531277 C444.3490715 932.83623351 432.76354779 932.84035877 421.17802048 932.84671402 C417.8374403 932.84850925 414.49686011 932.85028888 411.15627992 932.85206378 C410.325683 932.85250587 409.49508608 932.85294797 408.63931956 932.85340346 C385.28865875 932.86570497 361.93799978 932.87360531 338.58733559 932.8727169 C337.70770585 932.87268575 336.82807612 932.87265459 335.92179094 932.87262249 C331.46395593 932.87245628 327.00612092 932.8722582 322.54828592 932.87205307 C321.66302303 932.87201318 320.77776014 932.87197329 319.8656711 932.87193219 C318.07545394 932.87185132 316.28523678 932.87176772 314.49501961 932.87168141 C286.65923614 932.87045665 258.82350145 932.88545807 230.98773193 932.91282654 C199.67728953 932.94359903 168.36687916 932.96075588 137.05642068 932.95890009 C133.71269695 932.95875085 130.36897322 932.95865342 127.02524948 932.95859146 C125.79038812 932.9585565 125.79038812 932.9585565 124.53058007 932.95852083 C111.3261841 932.95845948 98.12183073 932.97118971 84.91744739 932.98845599 C71.62756512 933.00547364 58.33774466 933.00733863 45.04785748 932.99423735 C37.17007468 932.98688853 29.29248059 932.99038307 21.41471809 933.01012203 C15.50668478 933.02366436 9.59879588 933.01590108 3.69076376 933.00037558 C1.31998768 932.99732714 -1.0508093 933.00085536 -3.42156069 933.01209573 C-26.57328596 933.114485 -48.66201349 930.16003642 -70.56744385 922.50120544 C-71.22857178 922.27207458 -71.88969971 922.04294373 -72.57086182 921.80686951 C-115.70975336 906.52134815 -153.80445232 872.59166255 -173.80596924 831.40306091 C-174.73765278 829.44079606 -175.65447196 827.47223391 -176.56744385 825.50120544 C-177.36795166 823.80931091 -177.36795166 823.80931091 -178.18463135 822.08323669 C-191.74700629 792.1124962 -193.89176791 760.51210212 -193.82141113 728.06126404 C-193.82372224 725.69826855 -193.82690307 723.33527379 -193.83086562 720.9722805 C-193.83913307 714.55111945 -193.83512542 708.13001866 -193.82889318 701.70885754 C-193.82381502 695.47222491 -193.83017991 689.23559774 -193.83518792 682.99896675 C-193.84566649 669.47331217 -193.84482785 655.9476766 -193.83903009 642.42202026 C-193.83398156 630.58486756 -193.83269365 618.74772179 -193.83507538 606.91056824 C-193.83522815 606.12271062 -193.83538092 605.33485301 -193.83553832 604.52312092 C-193.83616108 601.32424839 -193.83679789 598.12537585 -193.83745785 594.92650332 C-193.84356385 564.97208923 -193.83804801 535.01768718 -193.82726405 505.06327495 C-193.81777418 478.50156304 -193.81862349 451.93987031 -193.82818604 425.37815857 C-193.83891561 395.4754666 -193.84313066 365.57278526 -193.83696151 335.67009163 C-193.83632016 332.47734197 -193.83569447 329.28459231 -193.83507538 326.09184265 C-193.83491722 325.30581474 -193.83475907 324.51978682 -193.83459612 323.70993988 C-193.83232955 311.88569979 -193.83496604 300.06146742 -193.84003448 288.23722839 C-193.84577414 274.78074449 -193.84427854 261.32428241 -193.833473 247.86780119 C-193.82814742 241.0111453 -193.82611638 234.15453048 -193.8327713 227.29787445 C-193.83878528 221.00611128 -193.83536696 214.71442238 -193.8248162 208.42266583 C-193.82260505 206.16186827 -193.82366614 203.90106428 -193.82856777 201.64027095 C-193.85127197 190.28624669 -193.60091937 179.02126275 -192.68438339 167.70027161 C-192.60794083 166.74698617 -192.53149826 165.79370073 -192.45273925 164.81152785 C-188.24570258 117.80758515 -163.34760239 73.35032204 -127.44244385 43.06370544 C-89.94777656 13.16289482 -47.80160417 -0.21252428 0 0 Z " fill="#FEFEFE" transform="translate(216.56744384765625,23.498794555664063)"/>
<path d="M0 0 C0.7621582 -0.02304199 1.52431641 -0.04608398 2.30957031 -0.06982422 C13.14449559 0.0743668 22.58781864 5.96258949 31.6875 11.3125 C41.6315132 17.04855639 51.71596112 22.46976721 61.875 27.8125 C71.327014 32.78768317 80.76516276 37.76858771 90.07470703 43.00732422 C96.41998774 46.57132021 102.83414607 50.00252904 109.25 53.4375 C117.45723748 57.83495372 125.60432424 62.31617172 133.6875 66.9375 C143.56738132 72.58103041 153.59249091 77.92148619 163.65515137 83.22869873 C172.15751714 87.71571293 180.59758452 92.27770177 188.9375 97.0625 C198.36673076 102.47023933 207.94249579 107.56807517 217.5625 112.625 C228.09532706 118.16176626 238.54054362 123.80026809 248.86328125 129.72265625 C257.00411338 134.36792423 265.27296668 138.7531427 273.5625 143.125 C282.80474014 147.99948721 291.99531825 152.92910707 301.0625 158.125 C311.51644043 164.11233422 322.13742146 169.758311 332.78662109 175.38745117 C334.14814042 176.10720532 335.50963163 176.82701265 336.87109375 177.546875 C337.53475952 177.89776688 338.19842529 178.24865875 338.88220215 178.61018372 C347.29299829 183.06266231 355.63978738 187.63137549 363.98242188 192.20996094 C368.46368404 194.66770086 372.95063405 197.11500966 377.4375 199.5625 C378.32469727 200.04662354 379.21189453 200.53074707 380.12597656 201.02954102 C390.92499213 206.91894306 401.74349552 212.77242291 412.5625 218.625 C412.5625 221.625 412.5625 221.625 411.1640625 223.09765625 C410.51179688 223.62230469 409.85953125 224.14695312 409.1875 224.6875 C405.79979551 227.51856753 402.6582863 230.47649907 399.5625 233.625 C396.66658042 236.55618191 393.76007429 239.38903174 390.625 242.0625 C387.27324904 244.92672355 384.15693583 247.98834093 381.0625 251.125 C377.3940278 254.8434599 373.63100774 258.36168192 369.65625 261.75 C366.51729653 264.56100311 363.58899319 267.57767797 360.63110352 270.57592773 C357.40883552 273.82500607 354.06909355 276.84943863 350.58984375 279.81640625 C348.14821366 281.99458492 345.86201968 284.29748008 343.5625 286.625 C340.68692341 289.53553801 337.80375906 292.34924022 334.6875 295 C331.12963798 298.03930723 327.84808006 301.29863694 324.5625 304.625 C320.71128387 308.52396095 316.79828266 312.23324302 312.62109375 315.78515625 C309.49173959 318.58197942 306.57708371 321.58975348 303.63085938 324.57617188 C300.40867513 327.82517042 297.06900526 330.84951392 293.58984375 333.81640625 C290.24506946 336.80028004 287.14914843 340.03119732 284 343.21875 C281.30966094 345.87459753 278.49676475 348.32635432 275.625 350.78125 C273.17325311 352.97296313 270.87364427 355.28567104 268.5625 357.625 C265.68692341 360.53553801 262.80375906 363.34924022 259.6875 366 C256.12963824 369.03930701 252.84807703 372.29863368 249.5625 375.625 C245.68992826 379.54564836 241.75457759 383.27904188 237.5546875 386.8515625 C234.21929203 389.82071847 231.13730673 393.04318343 228 396.21875 C225.30966094 398.87459753 222.49676475 401.32635432 219.625 403.78125 C217.17325311 405.97296313 214.87364427 408.28567104 212.5625 410.625 C209.66658042 413.55618191 206.76007429 416.38903174 203.625 419.0625 C200.27324927 421.92672335 197.15693244 424.98833716 194.0625 428.125 C190.37255412 431.86530338 186.58746302 435.4073935 182.58984375 438.81640625 C179.24506946 441.80028004 176.14914843 445.03119732 173 448.21875 C170.30966094 450.87459753 167.49676475 453.32635432 164.625 455.78125 C162.17325311 457.97296313 159.87364427 460.28567104 157.5625 462.625 C154.68692341 465.53553801 151.80375906 468.34924022 148.6875 471 C145.12963824 474.03930701 141.84807703 477.29863368 138.5625 480.625 C134.68992826 484.54564836 130.75457759 488.27904188 126.5546875 491.8515625 C123.21929203 494.82071847 120.13730673 498.04318343 117 501.21875 C114.30966094 503.87459753 111.49676475 506.32635432 108.625 508.78125 C106.17325311 510.97296313 103.87364427 513.28567104 101.5625 515.625 C98.66658042 518.55618191 95.76007429 521.38903174 92.625 524.0625 C89.27324927 526.92672335 86.15693244 529.98833716 83.0625 533.125 C79.37255412 536.86530338 75.58746302 540.4073935 71.58984375 543.81640625 C68.24506946 546.80028004 65.14914843 550.03119732 62 553.21875 C59.30966094 555.87459753 56.49676475 558.32635432 53.625 560.78125 C51.17325311 562.97296313 48.87364427 565.28567104 46.5625 567.625 C43.68692341 570.53553801 40.80375906 573.34924022 37.6875 576 C34.12963824 579.03930701 30.84807703 582.29863368 27.5625 585.625 C23.68992826 589.54564836 19.75457759 593.27904188 15.5546875 596.8515625 C12.21929203 599.82071847 9.13730673 603.04318343 6 606.21875 C3.30966094 608.87459753 0.49676475 611.32635432 -2.375 613.78125 C-5.72101853 616.77238777 -8.82350187 620.00344497 -11.9765625 623.1953125 C-14.79585471 625.97880417 -17.73413268 628.57662069 -20.7421875 631.15234375 C-22.73752862 632.88562394 -24.60742634 634.71867328 -26.4375 636.625 C-30.1615272 635.3836576 -30.55732648 634.26140943 -32.5 630.9375 C-33.25990234 629.66326172 -33.25990234 629.66326172 -34.03515625 628.36328125 C-37.27814307 622.03087524 -37.72503391 616.67720009 -37.69197559 609.69760418 C-37.69518207 608.69723701 -37.69838855 607.69686984 -37.70169219 606.66618851 C-37.71002288 603.29918567 -37.7040571 599.93235929 -37.69819641 596.56535339 C-37.70121569 594.13295589 -37.70510405 591.70055933 -37.70978898 589.26816446 C-37.71794975 583.97189211 -37.7198615 578.67567184 -37.71628571 573.37939835 C-37.71098232 565.50355901 -37.71707036 557.62775717 -37.72536864 549.75192191 C-37.74061982 534.86760351 -37.74231254 519.9833021 -37.73984561 505.09897753 C-37.7380138 493.60558266 -37.7397702 482.11219338 -37.74407005 470.61879921 C-37.74467245 468.96824195 -37.74527365 467.31768469 -37.74587366 465.66712743 C-37.7467809 463.17996408 -37.74768956 460.69280072 -37.74860601 458.20563737 C-37.75703735 435.07681751 -37.76137 411.94799976 -37.75719929 388.81917858 C-37.75704291 387.94701409 -37.75688654 387.0748496 -37.75672542 386.17625588 C-37.75591962 381.75566842 -37.75507385 377.33508097 -37.75421212 372.91449352 C-37.75404103 372.03653394 -37.75386994 371.15857435 -37.75369367 370.25400992 C-37.75334702 368.47856153 -37.75299849 366.70311313 -37.75264808 364.92766474 C-37.74729086 337.30161738 -37.75522059 309.67560195 -37.77368164 282.04956055 C-37.79439357 251.01877554 -37.80512586 219.9880103 -37.80110615 188.95721799 C-37.8007108 185.64902803 -37.80034926 182.34083806 -37.80000877 179.03264809 C-37.79991804 178.21807511 -37.79982731 177.40350214 -37.79973383 176.56424513 C-37.7985674 164.26241292 -37.80521966 151.96060065 -37.81582069 139.65877342 C-37.82786401 125.66891997 -37.82944172 111.67911049 -37.81703053 97.68925639 C-37.81039517 89.85928825 -37.81204853 82.02942523 -37.82561904 74.19946547 C-37.8348202 68.35506984 -37.82836255 62.51076006 -37.81577124 56.6663684 C-37.81311038 54.30031991 -37.81553414 51.93425922 -37.82350711 49.56822266 C-37.83358398 46.3552629 -37.82521558 43.14285667 -37.81223011 39.92991924 C-37.81953946 39.00871364 -37.8268488 38.08750804 -37.83437964 37.13838711 C-37.73785181 25.63641743 -33.58961944 18.14683816 -25.8125 9.90234375 C-18.28755217 2.82961635 -10.16413119 0.17482788 0 0 Z " fill="#3FC3FE" transform="translate(226.4375,165.375)"/>
<path d="M0 0 C1.81950365 0.83787062 3.60744783 1.74607903 5.3671875 2.703125 C6.40504395 3.26427002 7.44290039 3.82541504 8.51220703 4.40356445 C9.62192871 5.01288818 10.73165039 5.62221191 11.875 6.25 C13.04911046 6.88864375 14.22343015 7.52690295 15.39794922 8.16479492 C23.61838844 12.64149877 31.76200145 17.24982345 39.89013672 21.89160156 C48.17378262 26.59408333 56.57601167 31.05615747 65 35.5 C75.28829063 40.92730375 85.49464996 46.45772861 95.58813477 52.24243164 C100.65652914 55.13846206 105.75625915 57.96214625 110.91015625 60.703125 C111.78939758 61.17157585 111.78939758 61.17157585 112.68640137 61.64949036 C115.52742226 63.16152096 118.37247649 64.66506941 121.22412109 66.15698242 C137.01408961 74.52707622 137.01408961 74.52707622 141.3125 81.4375 C141.76238281 82.13746094 142.21226562 82.83742188 142.67578125 83.55859375 C146.23407783 90.11887505 147.53166353 94.87580567 147.4375 102.3125 C147.42920166 103.15409668 147.42090332 103.99569336 147.41235352 104.86279297 C147.12508174 115.43153195 143.46032653 123.43694953 136 131 C129.94488853 136.27136009 123.53948114 140.06503628 116.375 143.625 C108.34287101 147.71105561 100.440067 151.95029605 92.625 156.4375 C83.64863911 161.57715338 74.5410146 166.39732743 65.34082031 171.12255859 C57.28252181 175.28180145 49.39205967 179.68971789 41.5234375 184.1953125 C34.92636595 187.95600576 28.25088526 191.52381498 21.5 195 C13.73178054 199.00019112 6.08461758 203.16179198 -1.5 207.5 C-10.05044257 212.38814712 -18.69770052 217.03257694 -27.44750977 221.55297852 C-36.76916845 226.37501781 -45.97044247 231.40517815 -55.17138672 236.45263672 C-60.10527384 239.15166801 -65.05318218 241.82476537 -70 244.5 C-77.67440814 248.65257804 -85.34169865 252.81779239 -93 257 C-105.6627639 263.91431084 -118.3520455 270.77944658 -131.04101562 277.64550781 C-142.60813298 283.90514077 -154.16827451 290.17698405 -165.71142578 296.48071289 C-173.47762387 300.71991918 -181.25746912 304.93366902 -189.0390625 309.14453125 C-195.69972594 312.75023924 -202.35262403 316.36985996 -209 320 C-221.6627639 326.91431084 -234.3520455 333.77944658 -247.04101562 340.64550781 C-258.60813298 346.90514077 -270.16827451 353.17698405 -281.71142578 359.48071289 C-289.47906023 363.72070322 -297.26023058 367.93544483 -305.04345703 372.14672852 C-312.56312413 376.21710163 -320.07003218 380.31040157 -327.57250977 384.41235352 C-332.48753749 387.095949 -337.41150096 389.76169454 -342.34765625 392.40625 C-353.02225489 398.12526731 -363.65944175 403.88957154 -374.1875 409.875 C-380.57854218 413.50612565 -386.96832181 417.13438249 -393.4375 420.625 C-395.07525391 421.51058594 -395.07525391 421.51058594 -396.74609375 422.4140625 C-406.91206844 427.36890731 -417.99349181 429.56664247 -429.17431641 426.38037109 C-435.69427519 423.89486195 -440.87888149 420.74970511 -445 415 C-439.49606678 409.40500906 -434.00296551 403.90436936 -428.02734375 398.80859375 C-424.68256946 395.82471996 -421.58664843 392.59380268 -418.4375 389.40625 C-415.74716094 386.75040247 -412.93426475 384.29864568 -410.0625 381.84375 C-407.61075311 379.65203687 -405.31114427 377.33932896 -403 375 C-400.12442341 372.08946199 -397.24125906 369.27575978 -394.125 366.625 C-390.56713824 363.58569299 -387.28557703 360.32636632 -384 357 C-380.12742826 353.07935164 -376.19207759 349.34595812 -371.9921875 345.7734375 C-368.65679203 342.80428153 -365.57480673 339.58181657 -362.4375 336.40625 C-359.74716094 333.75040247 -356.93426475 331.29864568 -354.0625 328.84375 C-351.61075311 326.65203687 -349.31114427 324.33932896 -347 322 C-344.10408042 319.06881809 -341.19757429 316.23596826 -338.0625 313.5625 C-334.71074927 310.69827665 -331.59443244 307.63666284 -328.5 304.5 C-324.81005412 300.75969662 -321.02496302 297.2176065 -317.02734375 293.80859375 C-313.68256946 290.82471996 -310.58664843 287.59380268 -307.4375 284.40625 C-304.74716094 281.75040247 -301.93426475 279.29864568 -299.0625 276.84375 C-296.61075311 274.65203687 -294.31114427 272.33932896 -292 270 C-289.12442341 267.08946199 -286.24125906 264.27575978 -283.125 261.625 C-279.56713824 258.58569299 -276.28557703 255.32636632 -273 252 C-269.12742826 248.07935164 -265.19207759 244.34595812 -260.9921875 240.7734375 C-257.65679203 237.80428153 -254.57480673 234.58181657 -251.4375 231.40625 C-248.74716094 228.75040247 -245.93426475 226.29864568 -243.0625 223.84375 C-240.61075311 221.65203687 -238.31114427 219.33932896 -236 217 C-233.10408042 214.06881809 -230.19757429 211.23596826 -227.0625 208.5625 C-223.71074927 205.69827665 -220.59443244 202.63666284 -217.5 199.5 C-213.81005412 195.75969662 -210.02496302 192.2176065 -206.02734375 188.80859375 C-202.68256946 185.82471996 -199.58664843 182.59380268 -196.4375 179.40625 C-193.74716094 176.75040247 -190.93426475 174.29864568 -188.0625 171.84375 C-185.61075311 169.65203687 -183.31114427 167.33932896 -181 165 C-178.12442341 162.08946199 -175.24125906 159.27575978 -172.125 156.625 C-168.56713824 153.58569299 -165.28557703 150.32636632 -162 147 C-158.12742826 143.07935164 -154.19207759 139.34595812 -149.9921875 135.7734375 C-146.65679203 132.80428153 -143.57480673 129.58181657 -140.4375 126.40625 C-137.74716094 123.75040247 -134.93426475 121.29864568 -132.0625 118.84375 C-129.61075311 116.65203687 -127.31114427 114.33932896 -125 112 C-122.10408042 109.06881809 -119.19757429 106.23596826 -116.0625 103.5625 C-112.71074881 100.69827626 -109.59443922 97.63665531 -106.5 94.5 C-103.44662382 91.40508128 -100.37676292 88.38065703 -97.0625 85.5625 C-92.95652263 82.06356651 -89.21418998 78.24167411 -85.42651367 74.40698242 C-82.07433357 71.0293548 -78.61794352 67.85758681 -74.9921875 64.7734375 C-71.65542231 61.80306221 -68.57221824 58.57918589 -65.43359375 55.40234375 C-63.36757635 53.36285627 -61.26994451 51.444922 -59.0625 49.5625 C-55.71074904 46.69827645 -52.59443583 43.63665907 -49.5 40.5 C-45.8315278 36.7815401 -42.06850774 33.26331808 -38.09375 29.875 C-34.95479653 27.06399689 -32.02649319 24.04732203 -29.06860352 21.04907227 C-25.85410366 17.8078267 -22.52486708 14.78824093 -19.05078125 11.83203125 C-15.57639281 8.72824424 -12.35419858 5.37225922 -9.1015625 2.0390625 C-5.76054468 -1.2025942 -4.4035179 -1.18833901 0 0 Z " fill="#FE3A44" transform="translate(644,387)"/>
<path d="M0 0 C0.78310547 -0.03287109 1.56621094 -0.06574219 2.37304688 -0.09960938 C13.40425063 -0.19786301 22.81324343 5.68715081 32.0625 11.125 C42.0065132 16.86105639 52.09096112 22.28226721 62.25 27.625 C71.702014 32.60018317 81.14016276 37.58108771 90.44970703 42.81982422 C96.79498774 46.38382021 103.20914607 49.81502904 109.625 53.25 C117.83223748 57.64745372 125.97932424 62.12867172 134.0625 66.75 C143.94238132 72.39353041 153.96749091 77.73398619 164.03015137 83.04119873 C172.53251714 87.52821293 180.97258452 92.09020177 189.3125 96.875 C198.74173076 102.28273933 208.31749579 107.38057517 217.9375 112.4375 C228.47032706 117.97426626 238.91554362 123.61276809 249.23828125 129.53515625 C257.37911338 134.18042423 265.64796668 138.5656427 273.9375 142.9375 C283.17974014 147.81198721 292.37031825 152.74160707 301.4375 157.9375 C311.89144043 163.92483422 322.51242146 169.570811 333.16162109 175.19995117 C334.52314042 175.91970532 335.88463163 176.63951265 337.24609375 177.359375 C337.90975952 177.71026688 338.57342529 178.06115875 339.25720215 178.42268372 C347.66799829 182.87516231 356.01478738 187.44387549 364.35742188 192.02246094 C368.83868404 194.48020086 373.32563405 196.92750966 377.8125 199.375 C378.69969727 199.85912354 379.58689453 200.34324707 380.50097656 200.84204102 C391.29999213 206.73144306 402.11849552 212.58492291 412.9375 218.4375 C412.9375 221.4375 412.9375 221.4375 411.5390625 222.91015625 C410.88679688 223.43480469 410.23453125 223.95945312 409.5625 224.5 C406.17479551 227.33106753 403.0332863 230.28899907 399.9375 233.4375 C397.04158042 236.36868191 394.13507429 239.20153174 391 241.875 C387.64824904 244.73922355 384.53193583 247.80084093 381.4375 250.9375 C377.7690278 254.6559599 374.00600774 258.17418192 370.03125 261.5625 C366.89229653 264.37350311 363.96399319 267.39017797 361.00610352 270.38842773 C357.78383552 273.63750607 354.44409355 276.66193863 350.96484375 279.62890625 C348.52321366 281.80708492 346.23701968 284.10998008 343.9375 286.4375 C341.06192341 289.34803801 338.17875906 292.16174022 335.0625 294.8125 C331.50460605 297.85183451 328.2233409 301.11135768 324.9375 304.4375 C320.43784103 308.98694482 315.83604866 313.31516676 310.9375 317.4375 C309.60359556 318.58266844 308.27023732 319.72847349 306.9375 320.875 C305.9475 321.720625 304.9575 322.56625 303.9375 323.4375 C302.885625 322.36822266 302.885625 322.36822266 301.8125 321.27734375 C296.98153496 316.39165628 292.12887236 311.64156867 286.8984375 307.1796875 C283.84383647 304.46583878 281.02088457 301.52886248 278.15234375 298.62109375 C276.16090539 296.65775329 274.12447422 294.81670331 272 293 C268.8271408 290.28130752 265.87411618 287.40998325 262.9375 284.4375 C260.06192341 281.52696199 257.17875906 278.71325978 254.0625 276.0625 C249.93843632 272.53951443 246.17259436 268.70034227 242.36425781 264.84472656 C239.01199359 261.46701821 235.55553259 258.29516258 231.9296875 255.2109375 C228.59429203 252.24178153 225.51230673 249.01931657 222.375 245.84375 C220.28749365 243.78300655 218.16580777 241.84234374 215.9375 239.9375 C212.78355835 237.24138859 209.85376603 234.38933025 206.9375 231.4375 C204.04158042 228.50631809 201.13507429 225.67346826 198 223 C194.64824904 220.13577645 191.53193583 217.07415907 188.4375 213.9375 C185.36359473 210.82170877 182.27047855 207.77872762 178.9375 204.9375 C175.08706985 201.6551661 171.55604421 198.08495151 168.00610352 194.48657227 C164.78383552 191.23749393 161.44409355 188.21306137 157.96484375 185.24609375 C154.62006946 182.26221996 151.52414843 179.03130268 148.375 175.84375 C146.28749365 173.78300655 144.16580777 171.84234374 141.9375 169.9375 C137.8626665 166.45417458 134.14457008 162.65931292 130.37890625 158.84765625 C127.66547273 156.16895468 124.82972977 153.69141882 121.93359375 151.21484375 C119.67617374 149.20481223 117.56014287 147.08917047 115.4375 144.9375 C112.7497154 142.2130846 110.03933137 139.60489688 107.125 137.125 C103.54851185 134.06249817 100.24360201 130.78469713 96.9375 127.4375 C93.08628711 123.53853494 89.1732826 119.82925693 84.99609375 116.27734375 C81.8675108 113.48120984 78.95352391 110.47423816 76.00805664 107.48852539 C72.76369226 104.21712934 69.40123664 101.16778962 65.8984375 98.1796875 C62.84383647 95.46583878 60.02088457 92.52886248 57.15234375 89.62109375 C55.16090539 87.65775329 53.12447422 85.81670331 51 84 C47.8271408 81.28130752 44.87411618 78.40998325 41.9375 75.4375 C39.06192341 72.52696199 36.17875906 69.71325978 33.0625 67.0625 C28.93843632 63.53951443 25.17259436 59.70034227 21.36425781 55.84472656 C18.01199359 52.46701821 14.55553259 49.29516258 10.9296875 46.2109375 C8.49812019 44.04636582 6.22538919 41.75320547 3.9375 39.4375 C1.08226317 36.54760172 -1.77750196 33.75298255 -4.875 31.125 C-9.36372012 27.29855006 -13.460574 23.09187601 -17.58325195 18.87963867 C-19.98109851 16.44429759 -22.20860173 14.34009885 -25.0625 12.4375 C-24.859375 10.6328125 -24.859375 10.6328125 -24.0625 8.4375 C-21.953125 6.8046875 -21.953125 6.8046875 -19.3125 5.3125 C-18.45140625 4.81492188 -17.5903125 4.31734375 -16.703125 3.8046875 C-10.90594762 0.80319033 -6.47076588 0.04633007 0 0 Z " fill="#00E576" transform="translate(226.0625,165.5625)"/>
<path d="M0 0 C1.81950365 0.83787062 3.60744783 1.74607903 5.3671875 2.703125 C6.92397217 3.54484253 6.92397217 3.54484253 8.51220703 4.40356445 C9.62192871 5.01288818 10.73165039 5.62221191 11.875 6.25 C13.04911046 6.88864375 14.22343015 7.52690295 15.39794922 8.16479492 C23.61838844 12.64149877 31.76200145 17.24982345 39.89013672 21.89160156 C48.17378262 26.59408333 56.57601167 31.05615747 65 35.5 C75.28829063 40.92730375 85.49464996 46.45772861 95.58813477 52.24243164 C100.65652914 55.13846206 105.75625915 57.96214625 110.91015625 60.703125 C111.49631714 61.01542557 112.08247803 61.32772614 112.68640137 61.64949036 C115.52742226 63.16152096 118.37247649 64.66506941 121.22412109 66.15698242 C137.01408961 74.52707622 137.01408961 74.52707622 141.3125 81.4375 C141.98732422 82.48744141 141.98732422 82.48744141 142.67578125 83.55859375 C146.23407783 90.11887505 147.53166353 94.87580567 147.4375 102.3125 C147.42920166 103.15409668 147.42090332 103.99569336 147.41235352 104.86279297 C147.12508174 115.43153195 143.46032653 123.43694953 136 131 C129.94488853 136.27136009 123.53948114 140.06503628 116.375 143.625 C108.34287101 147.71105561 100.440067 151.95029605 92.625 156.4375 C83.64863911 161.57715338 74.5410146 166.39732743 65.34082031 171.12255859 C57.29010371 175.2778881 49.40733291 179.68204301 41.54541016 184.18212891 C32.00111682 189.62117256 22.26254706 194.66237639 12.50244141 199.70019531 C7.30032895 202.40224865 2.14686949 205.19441279 -3 208 C-3.4125 207.5153125 -3.825 207.030625 -4.25 206.53125 C-9.70780847 200.19629374 -15.38948569 194.18870064 -21.75 188.75 C-25.86361544 185.21941667 -29.65503712 181.40553976 -33.43652344 177.52636719 C-36.78291819 174.12090505 -40.28847641 170.96680457 -43.8984375 167.84326172 C-47.5148029 164.67137989 -51.00323846 161.36499701 -54.5 158.0625 C-55.20769531 157.39798828 -55.91539062 156.73347656 -56.64453125 156.04882812 C-60.90090701 152.03756359 -65.07311274 147.95779664 -69.17651367 143.79003906 C-70.99389449 142.00599352 -72.87380095 140.33807806 -74.8125 138.6875 C-78.71628676 135.33591883 -82.31617139 131.71373382 -85.92626953 128.05419922 C-89.1918684 124.76137757 -92.5756326 121.68752158 -96.1015625 118.6796875 C-98.8760414 116.22490165 -101.43733453 113.57256908 -104.03515625 110.93359375 C-106.89232376 108.12186826 -109.92124652 105.5656279 -113 103 C-109.71876801 95.15749496 -101.53340416 89.39088372 -95.1953125 83.9765625 C-92.35623547 81.42038283 -89.6839835 78.71730421 -87 76 C-83.12742826 72.07935164 -79.19207759 68.34595812 -74.9921875 64.7734375 C-71.65542231 61.80306221 -68.57221824 58.57918589 -65.43359375 55.40234375 C-63.36757635 53.36285627 -61.26994451 51.444922 -59.0625 49.5625 C-55.71074904 46.69827645 -52.59443583 43.63665907 -49.5 40.5 C-45.8315278 36.7815401 -42.06850774 33.26331808 -38.09375 29.875 C-34.95479653 27.06399689 -32.02649319 24.04732203 -29.06860352 21.04907227 C-25.85410366 17.8078267 -22.52486708 14.78824093 -19.05078125 11.83203125 C-15.57639281 8.72824424 -12.35419858 5.37225922 -9.1015625 2.0390625 C-5.76054468 -1.2025942 -4.4035179 -1.18833901 0 0 Z " fill="#FEC828" transform="translate(644,387)"/>
</svg>
